<?xml version="1.0" encoding="utf-8"?>
<svg viewBox="0 0 200 200" xmlns="http://www.w3.org/2000/svg" xmlns:xlink="http://www.w3.org/1999/xlink" xmlns:bx="https://boxy-svg.com">
  <defs>
    <bx:grid x="0" y="0" width="20.123" height="20.329"/>
    <pattern x="0" y="0" width="25" height="25" patternUnits="userSpaceOnUse" viewBox="0 0 100 100" id="pattern-2">
      <title>cuadro</title>
      <defs>
        <bx:grid x="0" y="0" width="20.124" height="20.123"/>
      </defs>
      <g transform="matrix(1, 0, 0, 1, 1, -2)">
        <rect width="9.96" height="100.615" style="stroke: rgb(0, 0, 0);" transform="matrix(0.707107, 0.707107, -0.707107, 0.707107, 45.13406, -31.166527)"/>
        <rect width="9.96" height="160.436" style="stroke: rgb(0, 0, 0);" transform="matrix(0.707107, 0.707107, -0.707107, 0.707107, 87.341827, -32.839787)"/>
        <rect width="9.96" height="150.708" style="stroke: rgb(0, 0, 0);" transform="matrix(0.707107, 0.707107, -0.707107, 0.707107, 93.577209, 0.763908)"/>
        <rect width="9.96" height="129.654" style="stroke: rgb(0, 0, 0);" transform="matrix(0.707107, 0.707107, -0.707107, 0.707107, 116.45887, 18.043171)"/>
        <rect width="9.96" height="100.615" style="stroke: rgb(0, 0, 0);" transform="matrix(0.707107, 0.707107, -0.707107, 0.707107, 126.228897, 48.866581)"/>
        <rect width="9.96" height="134.228" style="stroke: rgb(0, 0, 0);" transform="matrix(-0.707107, 0.707107, -0.707107, -0.707107, 128.364761, 87.627258)"/>
        <rect width="9.96" height="134.228" style="stroke: rgb(0, 0, 0);" transform="matrix(-0.707107, 0.707107, -0.707107, -0.707107, 148.556305, 66.967094)"/>
        <rect width="9.96" height="134.228" style="stroke: rgb(0, 0, 0);" transform="matrix(-0.707107, 0.707107, -0.707107, -0.707107, 108.694801, 107.86602)"/>
        <rect width="9.96" height="177.497" style="stroke: rgb(0, 0, 0);" transform="matrix(-0.707107, 0.707107, -0.707107, -0.707107, 108.304665, 147.961624)"/>
        <rect width="9.96" height="134.228" style="stroke: rgb(0, 0, 0);" transform="matrix(-0.707107, 0.707107, -0.707107, -0.707107, 62.00692, 141.663879)"/>
      </g>
    </pattern>
    <pattern id="pattern-0" viewBox="0 0 100 100" patternUnits="userSpaceOnUse" preserveAspectRatio="none" width="100" height="100" bx:pinned="true">
      <title>cuadro 2</title>
      <defs>
        <bx:grid x="155.236" y="59.754" width="100" height="100"/>
      </defs>
      <rect x="5.031" y="5.054" width="90.041" height="89.882" style="stroke: rgb(0, 0, 0); fill: none; stroke-width: 10px;"/>
      <rect x="36.196" y="7.09" width="63.088" height="60.893" style="stroke: rgb(0, 0, 0); fill: none; stroke-width: 10px;" transform="matrix(0.707107, 0.707107, -0.707107, 0.707107, 28.783785, -24.529724)"/>
      <rect x="36.196" y="7.09" width="63.088" height="60.893" style="stroke: rgb(0, 0, 0); fill: none; stroke-width: 10px;" transform="matrix(1, -0.000001, 0.000001, 1, -17.493086, 12.038742)"/>
      <rect x="8.06" y="1.72" width="14.049" height="14.764" style="stroke: rgb(0, 0, 0); fill: none; stroke-width: 10px;" transform="matrix(1, -0.000001, 0.000001, 1, 36.720348, 41.284893)"/>
      <rect x="8.29" y="1.627" width="14.448" height="13.964" style="stroke: rgb(0, 0, 0); fill: none; stroke-width: 10px;" transform="matrix(0.707107, 0.707107, -0.707107, 0.707107, 46.710693, 33.063126)"/>
    </pattern>
    <pattern id="pattern-2-0" patternTransform="matrix(1, 0, 0, 1, 55.917998, 50.534001)" xlink:href="#pattern-2"/>
    <pattern id="pattern-2-1" patternTransform="matrix(1, 0, 0, 1, 124.871997, 92.633)" xlink:href="#pattern-2"/>
  </defs>
  <g style="">
    <rect x="25" y="25" width="151.112" height="110" fill="none" stroke-width="10" stroke="black" rx="25.062" ry="25.062" style=""/>
    <rect x="35" y="35" width="131.872" height="90" fill="none" stroke-width="5" stroke="black" rx="15" ry="15" style=""/>
    <path style="stroke: rgb(0, 0, 0); fill: none; stroke-linecap: round; stroke-width: 10px;" d="M 51.624 162.632 L 52.01166666666666 159.6235 C 52.39933333333334 156.615 53.17466666666667 150.59799999999998 48.6685 147.2098333333333 C 44.16233333333333 143.82166666666666 34.37466666666666 143.06233333333333 29.412333333333333 148.02466666666666 C 24.45 152.987 24.313 163.671 26.381833333333333 169.96816666666666 C 28.450666666666667 176.26533333333336 32.72533333333333 178.17566666666667 41.372499999999995 178.61750000000004 C 50.019666666666666 179.05933333333334 63.03933333333333 178.03266666666664 69.3095 170.51833333333335 C 75.57966666666665 163.004 75.10033333333332 149.00199999999998 74.86066666666666 142.001 L 74.621 135" bx:d="M 51.624 162.632 U 53.95 144.581 U 24.587 142.303 U 24.176 174.355 U 37 180.086 U 76.059 177.006 U 74.621 135 1@bf31954c"/>
    <path style="stroke: rgb(0, 0, 0); fill: none; stroke-linecap: round; stroke-width: 10px;" d="M 153.296 151.073 L 153.67466666666667 154.0815 C 154.0533333333333 157.09 154.81066666666666 163.107 150.4085 166.49516666666668 C 146.00633333333334 169.88333333333333 136.44466666666668 170.64266666666666 131.59683333333334 165.68033333333332 C 126.74899999999998 160.718 126.615 150.034 128.636 143.73683333333332 C 130.657 137.43966666666665 134.833 135.5293333333333 143.28066666666666 135.0875 C 151.72833333333332 134.64566666666667 164.44766666666666 135.67233333333334 170.57316666666668 143.1866666666667 C 176.69866666666667 150.70100000000002 176.23033333333333 164.703 175.99616666666668 171.70399999999998 L 175.762 178.705" transform="matrix(-1, 0, 0, -1, 303.518013, 313.705444)" bx:d="M 153.296 151.073 U 155.568 169.124 U 126.883 171.402 U 126.481 139.35 U 139.009 133.619 U 177.167 136.699 U 175.762 178.705 1@e5dc63b0"/>
    <path style="stroke: rgb(0, 0, 0); fill: none; stroke-width: 10px;" d="M 74.979 136.234 L 75.05616666666667 143.62466666666668 C 75.13333333333333 151.01533333333336 75.28766666666667 165.79666666666665 84.0255 173.18733333333333 C 92.76333333333332 180.578 110.08466666666668 180.578 118.74533333333333 172.98166666666665 C 127.406 165.38533333333334 127.406 150.19266666666667 127.40599999999999 142.59633333333332 L 127.406 135" bx:d="M 74.979 136.234 U 75.442 180.578 U 127.406 180.578 U 127.406 135 1@2d849bff"/>
    <path style="stroke: rgb(0, 0, 0); fill: none; stroke-width: 6px;" d="M 85.136 137.692 L 85.18283333333333 143.03833333333333 C 85.22966666666666 148.38466666666667 85.32333333333334 159.07733333333334 90.63933333333334 164.42366666666666 C 95.95533333333333 169.77 106.49366666666667 169.77 111.76283333333333 164.27483333333333 C 117.032 158.77966666666669 117.032 147.78933333333336 117.032 142.29416666666665 L 117.032 136.799" bx:d="M 85.136 137.692 U 85.417 169.77 U 117.032 169.77 U 117.032 136.799 1@85cdca78"/>
  </g>
  <path style="stroke: rgb(0, 0, 0); fill: none; stroke-width: 3px;" d="M 35.511 67.613 L 35.827 69.897 C 36.142 72.181 36.774 76.748 39.757 79.637 C 42.74 82.525 48.074 83.734 49.889 80.346 C 51.704 76.958 50 68.972 49.384 62.202 C 48.769 55.431 49.242 49.874 53.125 47.522 C 57.008 45.17 64.299 46.023 82.055 45.413 C 99.811 44.803 128.03 42.73 141.809 45.571 C 155.587 48.412 154.924 56.166 154.782 69.719 C 154.64 83.271 155.018 102.623 155.208 112.298 L 155.397 121.974" bx:d="M 35.511 67.613 U 37.405 81.316 U 53.409 84.943 U 48.295 60.987 U 49.716 44.318 U 71.591 46.875 U 156.25 40.658 U 154.261 63.92 U 155.397 121.974 1@e12d10b6"/>
  <path style="stroke: rgb(0, 0, 0); fill: none; stroke-width: 3px;" d="M 111.645 44.191 L 115.487 45.023 C 119.329 45.854 127.012 47.516 130.762 53.704 C 134.511 59.891 134.327 70.604 127.226 73.771 C 120.125 76.938 106.109 72.56 99.424 72.56 C 92.739 72.56 93.387 76.938 96.788 78.559 C 100.189 80.18 106.345 79.043 108.104 80.784 C 109.864 82.525 107.228 87.143 103.488 88.41 C 99.747 89.678 94.902 87.594 90.885 88.21 C 86.869 88.826 83.68 92.14 84.58 94.167 C 85.48 96.193 90.467 96.93 91.635 99.25 C 92.803 101.57 90.152 105.473 85.701 107.367 C 81.25 109.26 75 109.146 69.957 111.845 C 64.915 114.543 61.079 120.056 59.162 122.812 L 57.244 125.568" bx:d="M 111.645 44.191 U 134.696 49.179 U 134.142 81.316 U 92.092 68.182 U 94.034 81.316 U 112.5 77.907 U 104.592 91.761 U 90.057 85.511 U 80.492 95.455 U 95.455 97.668 U 87.5 109.375 U 68.75 109.031 U 57.244 125.568 1@6e859a21"/>
  <ellipse style="fill: url(#pattern-2-0); stroke: rgb(0, 0, 0); stroke-miterlimit: 1; stroke-width: 2px;" cx="68.418" cy="63.034" rx="12.074" ry="11.648"/>
  <ellipse style="stroke: rgb(0, 0, 0); stroke-width: 2px; fill: url(#pattern-2-1);" cx="137.372" cy="105.133" rx="12.074" ry="11.648"/>
</svg>