<?xml version="1.0" encoding="utf-8"?>
<svg viewBox="0 0 200 200" xmlns="http://www.w3.org/2000/svg" xmlns:bx="https://boxy-svg.com">
  <defs>
    <bx:grid x="0" y="0" width="20.123" height="20.329"/>
  </defs>
  <g>
    <rect x="25" y="25" width="151.112" height="110" fill="none" stroke-width="10" stroke="black" rx="25.062" ry="25.062" style=""/>
    <rect x="35" y="35" width="131.872" height="90" fill="none" stroke-width="5" stroke="black" rx="15" ry="15" style=""/>
    <path style="stroke: rgb(0, 0, 0); fill: none; stroke-linecap: round; stroke-width: 10px;" d="M 51.624 162.632 L 52.01166666666666 159.6235 C 52.39933333333334 156.615 53.17466666666667 150.59799999999998 48.6685 147.2098333333333 C 44.16233333333333 143.82166666666666 34.37466666666666 143.06233333333333 29.412333333333333 148.02466666666666 C 24.45 152.987 24.313 163.671 26.381833333333333 169.96816666666666 C 28.450666666666667 176.26533333333336 32.72533333333333 178.17566666666667 41.372499999999995 178.61750000000004 C 50.019666666666666 179.05933333333334 63.03933333333333 178.03266666666664 69.3095 170.51833333333335 C 75.57966666666665 163.004 75.10033333333332 149.00199999999998 74.86066666666666 142.001 L 74.621 135" bx:d="M 51.624 162.632 U 53.95 144.581 U 24.587 142.303 U 24.176 174.355 U 37 180.086 U 76.059 177.006 U 74.621 135 1@bf31954c"/>
    <path style="stroke: rgb(0, 0, 0); fill: none; stroke-linecap: round; stroke-width: 10px;" d="M 153.296 151.073 L 153.67466666666667 154.0815 C 154.0533333333333 157.09 154.81066666666666 163.107 150.4085 166.49516666666668 C 146.00633333333334 169.88333333333333 136.44466666666668 170.64266666666666 131.59683333333334 165.68033333333332 C 126.74899999999998 160.718 126.615 150.034 128.636 143.73683333333332 C 130.657 137.43966666666665 134.833 135.5293333333333 143.28066666666666 135.0875 C 151.72833333333332 134.64566666666667 164.44766666666666 135.67233333333334 170.57316666666668 143.1866666666667 C 176.69866666666667 150.70100000000002 176.23033333333333 164.703 175.99616666666668 171.70399999999998 L 175.762 178.705" transform="matrix(-1, 0, 0, -1, 303.518013, 313.705444)" bx:d="M 153.296 151.073 U 155.568 169.124 U 126.883 171.402 U 126.481 139.35 U 139.009 133.619 U 177.167 136.699 U 175.762 178.705 1@e5dc63b0"/>
    <path style="stroke: rgb(0, 0, 0); fill: none; stroke-width: 10px;" d="M 74.979 136.234 L 75.05616666666667 143.62466666666668 C 75.13333333333333 151.01533333333336 75.28766666666667 165.79666666666665 84.0255 173.18733333333333 C 92.76333333333332 180.578 110.08466666666668 180.578 118.74533333333333 172.98166666666665 C 127.406 165.38533333333334 127.406 150.19266666666667 127.40599999999999 142.59633333333332 L 127.406 135" bx:d="M 74.979 136.234 U 75.442 180.578 U 127.406 180.578 U 127.406 135 1@2d849bff"/>
    <path style="stroke: rgb(0, 0, 0); fill: none; stroke-width: 6px;" d="M 85.136 137.692 L 85.18283333333333 143.03833333333333 C 85.22966666666666 148.38466666666667 85.32333333333334 159.07733333333334 90.63933333333334 164.42366666666666 C 95.95533333333333 169.77 106.49366666666667 169.77 111.76283333333333 164.27483333333333 C 117.032 158.77966666666669 117.032 147.78933333333336 117.032 142.29416666666665 L 117.032 136.799" bx:d="M 85.136 137.692 U 85.417 169.77 U 117.032 169.77 U 117.032 136.799 1@85cdca78"/>
  </g>
  <path style="stroke: rgb(0, 0, 0); fill: none; stroke-width: 3px;" d="M 34.944 49.83 L 39.18150000000001 49.54583333333333 C 43.419000000000004 49.26166666666666 51.894000000000005 48.69333333333333 54.782000000000004 52.055 C 57.669999999999995 55.416666666666664 54.971000000000004 62.708333333333336 58.32483333333334 65.17033333333333 C 61.678666666666665 67.63233333333334 71.08533333333334 65.26466666666666 75.78866666666667 65.454 C 80.492 65.64333333333333 80.492 68.38966666666666 80.492 71.46733333333333 C 80.492 74.545 80.492 77.954 83.84583333333335 79.484 C 87.19966666666666 81.014 93.90733333333333 80.665 97.26116666666667 80.4905 L 100.615 80.316" bx:d="M 34.944 49.83 U 60.369 48.125 U 52.272 70 U 80.492 62.897 U 80.492 71.136 U 80.492 81.363 U 100.615 80.316 1@5b297db4"/>
  <path style="stroke: rgb(0, 0, 0); fill: none; stroke-width: 3px;" d="M 101.261 82.815 L 105.38966666666666 82.53516666666667 C 109.51833333333333 82.25533333333333 117.77566666666667 81.69566666666667 120.58933333333334 85.0045 C 123.403 88.31333333333333 120.77300000000001 95.49066666666666 124.04066666666667 97.91416666666667 C 127.30833333333334 100.33766666666668 136.47366666666667 98.00733333333335 141.05633333333336 98.19366666666667 C 145.639 98.38 145.639 101.08300000000001 145.639 104.11233333333332 C 145.639 107.14166666666667 145.639 110.49733333333332 148.90666666666667 112.00333333333333 C 152.17433333333335 113.50933333333334 158.70966666666666 113.16566666666667 161.97733333333335 112.99383333333333 L 165.245 112.822" transform="matrix(-1, 0, 0, -1, 266.505997, 195.469048)" bx:d="M 101.261 82.815 U 126.033 81.136 U 118.143 102.668 U 145.639 95.677 U 145.639 103.786 U 145.639 113.853 U 165.245 112.822 1@763c7d11"/>
  <path style="stroke: rgb(0, 0, 0); fill: none; stroke-width: 3px;" d="M 34.944 113.138 L 39.223333333333336 113.42216666666667 C 43.50266666666667 113.70633333333335 52.06133333333333 114.27466666666668 54.977666666666664 110.913 C 57.894 107.55133333333333 55.168 100.25966666666666 58.5545 97.79766666666667 C 61.940999999999995 95.33566666666667 71.44 97.70333333333333 76.1895 97.51400000000001 C 80.939 97.32466666666666 80.939 94.57833333333333 80.93899999999998 91.50066666666667 C 80.939 88.423 80.939 85.014 84.32599999999998 83.484 C 87.71300000000001 81.95400000000001 94.48700000000001 82.303 97.87399999999998 82.4775 L 101.261 82.652" transform="matrix(-1, 0, 0, -1, 136.205002, 195.960518)" bx:d="M 34.944 113.138 U 60.62 114.843 U 52.442 92.968 U 80.939 100.071 U 80.939 91.832 U 80.939 81.605 U 101.261 82.652 1@7bca8863"/>
  <path style="stroke: rgb(0, 0, 0); fill: none; stroke-width: 3px;" d="M 100.615 79.919 L 104.7855 80.20316666666666 C 108.956 80.48733333333332 117.29700000000001 81.05566666666665 120.13900000000001 77.694 C 122.981 74.33233333333332 120.324 67.04066666666667 123.62433333333335 64.57866666666666 C 126.92466666666667 62.116666666666674 136.18233333333333 64.48433333333334 140.81116666666665 64.295 C 145.44 64.10566666666666 145.44 61.35933333333333 145.44000000000003 58.281666666666666 C 145.44 55.204 145.44 51.794999999999995 148.74083333333334 50.26500000000001 C 152.04166666666666 48.73500000000001 158.64333333333335 49.084 161.9441666666667 49.2585 L 165.245 49.433" bx:d="M 100.615 79.919 U 125.638 81.624 U 117.667 59.749 U 145.44 66.852 U 145.44 58.613 U 145.44 48.386 U 165.245 49.433 1@7f84f32a"/>
</svg>