<?xml version="1.0" encoding="utf-8"?>
<svg viewBox="0 0 200 200" xmlns="http://www.w3.org/2000/svg" xmlns:bx="https://boxy-svg.com">
  <defs>
    <bx:grid x="0" y="0" width="20.123" height="20.329"/>
  </defs>
  <g>
    <rect x="25" y="25" width="151.112" height="110" fill="none" stroke-width="10" stroke="black" rx="25.062" ry="25.062" style=""/>
    <rect x="35" y="35" width="131.872" height="90" fill="none" stroke-width="5" stroke="black" rx="15" ry="15" style=""/>
    <path style="stroke: rgb(0, 0, 0); fill: none; stroke-linecap: round; stroke-width: 10px;" d="M 51.624 162.632 L 52.01166666666666 159.6235 C 52.39933333333334 156.615 53.17466666666667 150.59799999999998 48.6685 147.2098333333333 C 44.16233333333333 143.82166666666666 34.37466666666666 143.06233333333333 29.412333333333333 148.02466666666666 C 24.45 152.987 24.313 163.671 26.381833333333333 169.96816666666666 C 28.450666666666667 176.26533333333336 32.72533333333333 178.17566666666667 41.372499999999995 178.61750000000004 C 50.019666666666666 179.05933333333334 63.03933333333333 178.03266666666664 69.3095 170.51833333333335 C 75.57966666666665 163.004 75.10033333333332 149.00199999999998 74.86066666666666 142.001 L 74.621 135" bx:d="M 51.624 162.632 U 53.95 144.581 U 24.587 142.303 U 24.176 174.355 U 37 180.086 U 76.059 177.006 U 74.621 135 1@bf31954c"/>
    <path style="stroke: rgb(0, 0, 0); fill: none; stroke-linecap: round; stroke-width: 10px;" d="M 153.296 151.073 L 153.67466666666667 154.0815 C 154.0533333333333 157.09 154.81066666666666 163.107 150.4085 166.49516666666668 C 146.00633333333334 169.88333333333333 136.44466666666668 170.64266666666666 131.59683333333334 165.68033333333332 C 126.74899999999998 160.718 126.615 150.034 128.636 143.73683333333332 C 130.657 137.43966666666665 134.833 135.5293333333333 143.28066666666666 135.0875 C 151.72833333333332 134.64566666666667 164.44766666666666 135.67233333333334 170.57316666666668 143.1866666666667 C 176.69866666666667 150.70100000000002 176.23033333333333 164.703 175.99616666666668 171.70399999999998 L 175.762 178.705" transform="matrix(-1, 0, 0, -1, 303.518013, 313.705444)" bx:d="M 153.296 151.073 U 155.568 169.124 U 126.883 171.402 U 126.481 139.35 U 139.009 133.619 U 177.167 136.699 U 175.762 178.705 1@e5dc63b0"/>
    <path style="stroke: rgb(0, 0, 0); fill: none; stroke-width: 10px;" d="M 74.979 136.234 L 75.05616666666667 143.62466666666668 C 75.13333333333333 151.01533333333336 75.28766666666667 165.79666666666665 84.0255 173.18733333333333 C 92.76333333333332 180.578 110.08466666666668 180.578 118.74533333333333 172.98166666666665 C 127.406 165.38533333333334 127.406 150.19266666666667 127.40599999999999 142.59633333333332 L 127.406 135" bx:d="M 74.979 136.234 U 75.442 180.578 U 127.406 180.578 U 127.406 135 1@2d849bff"/>
    <path style="stroke: rgb(0, 0, 0); fill: none; stroke-width: 6px;" d="M 85.136 137.692 L 85.18283333333333 143.03833333333333 C 85.22966666666666 148.38466666666667 85.32333333333334 159.07733333333334 90.63933333333334 164.42366666666666 C 95.95533333333333 169.77 106.49366666666667 169.77 111.76283333333333 164.27483333333333 C 117.032 158.77966666666669 117.032 147.78933333333336 117.032 142.29416666666665 L 117.032 136.799" bx:d="M 85.136 137.692 U 85.417 169.77 U 117.032 169.77 U 117.032 136.799 1@85cdca78"/>
  </g>
  <rect x="56.673" y="56.263" width="89.528" height="49.078" style="stroke: rgb(0, 0, 0); fill: none; stroke-width: 4px;" rx="10.472" ry="10.472"/>
  <rect x="64.146" y="63.786" width="74.501" height="33.883" style="stroke: rgb(0, 0, 0); fill: none; stroke-width: 4px;" rx="10.472" ry="10.472"/>
  <ellipse style="stroke: rgb(0, 0, 0); stroke-width: 4px; fill: none;" cx="100.517" cy="81.143" rx="9.856" ry="9.138"/>
</svg>